<?xml version="1.0" encoding="utf-8"?>
<!-- Generator: Adobe Illustrator 23.0.1, SVG Export Plug-In . SVG Version: 6.00 Build 0)  -->
<svg version="1.1" id="Lager_1" xmlns="http://www.w3.org/2000/svg" xmlns:xlink="http://www.w3.org/1999/xlink" x="0px" y="0px"
	 viewBox="0 0 300 300" style="enable-background:new 0 0 300 300;" xml:space="preserve">
<style type="text/css">
	.st0{fill:#FFFFFF;}
	.st1{fill:#3C3C3B;}
	.st2{fill:#9DC7EC;}
</style>
<rect class="st0" width="300" height="300"/>
<g id="XMLID_2_">
	<path id="XMLID_23_" class="st1" d="M212.91,27.16c4.32,0,6.78,2.16,6.78,6.92c0,9.94,0.01,22.85,0,32.78
		c0,2.14-1.82,3.75-4.34,3.75c-2.39,0-4.51-1.66-4.51-3.75c0-9.06,0-21.3,0-30.66 M210.84,36.21c-14.3,0-182.91,0-197.73,0
		c0,74.96,0,150.05,0,225.4c65.74,0,131.42,0,197.74,0c0-1.49-0.1-3.03,0.02-4.54c0.22-2.75,1.87-4.36,4.55-4.29
		c2.5,0.07,4.11,1.65,4.21,4.24c0.12,3.06,0.09,6.13,0,9.2c-0.08,2.6-1.61,4.02-4.12,4.37c-1.09,0.15-2.2,0.08-3.31,0.08
		c-66.85,0-133.7,0-200.55,0c-5.63,0-7.67-2.18-7.67-7.53C4,186.97,4,110.8,4,34.63c0-4.69,2.03-7.47,7.64-7.47
		c15.33,0,201.27,0,201.27,0"/>
	<path id="XMLID_20_" class="st1" d="M68.46,158.27c0,4.78,0.04,9.57-0.01,14.35c-0.05,4.41-1.38,5.82-5.69,5.84
		c-9.07,0.06-18.15,0.06-27.23,0c-4.36-0.03-5.78-1.46-5.8-5.72c-0.04-9.81-0.03-19.62,0-29.43c0.02-4.1,1.48-5.61,5.47-5.63
		c9.2-0.04,18.4-0.04,27.59,0c4.08,0.02,5.58,1.46,5.64,5.51C68.52,148.21,68.46,153.24,68.46,158.27z M59.33,169.4
		c0-7.89,0-15.3,0-22.66c-7.04,0-13.81,0-20.49,0c0,7.72,0,15.12,0,22.66C45.76,169.4,52.43,169.4,59.33,169.4z"/>
	<path id="XMLID_17_" class="st1" d="M29.73,98.94c0-4.9-0.04-9.81,0.01-14.71c0.04-4.04,1.5-5.53,5.56-5.55
		c9.19-0.05,18.39-0.05,27.58,0c4.07,0.02,5.54,1.46,5.57,5.56c0.06,9.93,0.07,19.86,0,29.78c-0.03,3.89-1.5,5.33-5.38,5.36
		c-9.31,0.06-18.63,0.06-27.95-0.01c-3.89-0.03-5.31-1.48-5.36-5.35C29.68,108.99,29.73,103.97,29.73,98.94z M38.81,87.6
		c0,7.78,0,15.18,0,22.76c6.93,0,13.61,0,20.45,0c0-7.67,0-15.16,0-22.76C52.34,87.6,45.75,87.6,38.81,87.6z"/>
	<path id="XMLID_14_" class="st1" d="M68.46,216.55c0,4.9,0.04,9.81-0.01,14.71c-0.04,4.33-1.44,5.72-5.76,5.73
		c-9.07,0.03-18.14,0.03-27.21,0c-4.34-0.01-5.74-1.37-5.75-5.7c-0.04-9.81-0.04-19.61,0.01-29.42c0.02-4.12,1.41-5.49,5.53-5.51
		c9.19-0.04,18.39-0.04,27.58,0c4.15,0.02,5.54,1.36,5.6,5.48C68.52,206.74,68.46,211.65,68.46,216.55z M59.4,205.44
		c-7.09,0-13.86,0-20.52,0c0,7.73,0,15.12,0,22.46c6.99,0,13.66,0,20.52,0C59.4,220.34,59.4,213.03,59.4,205.44z"/>
	<path id="XMLID_12_" class="st1" d="M142.29,94.73c3.69,0.01,5.6,1.53,5.59,4.32c-0.01,2.75-2.01,4.48-5.57,4.49
		c-20.08,0.04-40.16,0.03-60.24,0.02c-3.03,0-5.37-0.99-5.51-4.49c-0.11-2.86,1.75-4.32,5.49-4.33"/>
	<path id="XMLID_11_" class="st1" d="M142.29,212.13c3.69,0.01,5.6,1.53,5.59,4.32c-0.01,2.75-2.01,4.48-5.57,4.49
		c-20.08,0.04-40.16,0.03-60.24,0.02c-3.03,0-5.37-0.99-5.51-4.49c-0.11-2.86,1.75-4.32,5.49-4.33"/>
	<path id="XMLID_7_" class="st1" d="M81.61,162.52c-3.55-0.03-5.63-1.72-5.46-4.51c0.2-3.23,2.33-4.35,5.27-4.35
		c11.52,0.01,23.03,0.05,34.55,0.06c3.03,0,5.08,1.25,5.05,4.47c-0.03,3.29-2.27,4.33-5.21,4.34"/>
	<path id="XMLID_5_" class="st0" d="M59.33,169.4c-6.89,0-13.56,0-20.49,0c0-7.55,0-14.94,0-22.66c6.68,0,13.45,0,20.49,0
		C59.33,154.1,59.33,161.51,59.33,169.4z"/>
	<path id="XMLID_4_" class="st0" d="M38.81,87.6c6.94,0,13.53,0,20.45,0c0,7.61,0,15.09,0,22.76c-6.83,0-13.52,0-20.45,0
		C38.81,102.78,38.81,95.38,38.81,87.6z"/>
	<path id="XMLID_3_" class="st0" d="M59.4,205.44c0,7.6,0,14.9,0,22.46c-6.86,0-13.54,0-20.52,0c0-7.34,0-14.73,0-22.46
		C45.55,205.44,52.31,205.44,59.4,205.44z"/>
	<g>
		<path id="XMLID_31_" d="M125.51,187.1c0,0,0.05-34.16,0.05-41.84c0-7.11-0.05-21.34-0.05-21.34c0.01-3.27,0.78-4.16,3.35-5.56
			c25.78-13.67,51.54-27.37,77.27-41.13c2.43-1.3,4.49-1.26,6.9,0.05c25.8,14.14,51.64,28.22,77.49,42.27
			c2.56,1.39,3.61,3.28,3.6,6.21c-0.07,24.41-0.09,48.82,0.02,73.23c0.01,3.21-1.39,4.87-4.03,6.27
			c-25.67,13.6-51.33,27.25-76.94,40.96c-2.7,1.45-4.92,1.38-7.5-0.28c-11.56-7.42-75.75-47.48-75.75-47.48
			c-4.25-2.91-4.4-6.65-4.4-12.83"/>
		<path id="XMLID_9_" class="st2" d="M213.78,235.04l-0.05-61.89c-0.02-2.58,0.84-3.96,3.08-5.13c6.92-3.6,13.73-7.41,21.21-11.48
			c0,6.14-0.01,13.47-0.01,18.93c0,4.21,2.81,5.81,6.61,4.02l17.05-9.25c3.66-1.76,4.88-4.31,4.74-8.18
			c-0.2-5.88,0.04-11.78-0.1-17.66c-0.06-2.36,0.59-3.81,2.82-4.92c5.22-2.61,16.02-8.59,16.02-8.59l0,3.81l0.07,58.88
			c0.01,2.58-0.85,3.85-3.09,5.04c-21.48,11.31-47.06,24.99-68.49,36.39"/>
		<path id="XMLID_8_" class="st2" d="M187.96,223.52c-5.7-3.59-11.47-7.09-17.05-10.85l-33.58-20.94c-2.75-1.66-2.92-2.87-2.92-8.4
			v-14.96c0-12.82,0-25.37,0-38.55c6.81,3.82,13.19,7.37,19.55,10.96c16.1,9.1,48.23,27.39,48.23,27.39
			c1.99,1.09,2.65,2.16,2.65,3.68c0.16,20.1,0.11,42.31,0.09,62.41"/>
		<path id="XMLID_1_" class="st2" d="M210.82,161.11c-0.63,0.33-1.76,0.52-3.23-0.22c-22.19-12.49-46.38-26.17-68.54-38.71
			l0.35-0.17c7.09-3.79,13.84-7.45,20.67-10.97c0.8-0.41,2.21-0.37,3.02,0.07c23.05,12.45,46.99,25.49,70.01,38.01"/>
		<path id="XMLID_10_" class="st2" d="M262.78,132.78c-0.79,0.36-1.9,0.02-2.65-0.39l-68.04-37.28l-1.06-0.59l17.13-9.04
			c0.77-0.39,2.17-0.19,2.99,0.25c22.62,12.28,46.47,25.32,69.05,37.67"/>
		<path id="XMLID_6_" class="st0" d="M171.05,105.22c3.51-1.9,6.29-3.66,9.3-4.89c1.05-0.43,2.8,0.17,3.96,0.8
			c22.18,12.06,44.22,24.37,66.54,36.16c5.14,2.72,6.56,4.65,6.56,11.6l-0.03,9.96c0,2.86-0.11,3.17-2.53,4.58
			c0,0-7.98,4.32-7.98,4.32c0-5.64,0.07-16.51,0.07-16.51c0-4.31-1.22-5.61-4.31-7.27c-21.92-11.76-43.77-23.65-65.64-35.5
			C175.2,107.49,173.41,106.51,171.05,105.22z"/>
	</g>
</g>
</svg>
